<svg xmlns="http://www.w3.org/2000/svg" width="626" height="136" viewBox="0 0 626 136">
  <g id="Group_446" data-name="Group 446" transform="translate(-669 -410)">
    <g id="Group_445" data-name="Group 445">
      <g id="Group_443" data-name="Group 443" transform="translate(539 -130)">
        <path id="Path_1596" data-name="Path 1596" d="M7.389,50.422A67.926,67.926,0,0,1,73.095,0V19.872A48.183,48.183,0,0,0,24.967,68Z" transform="translate(124.905 540)" fill="#f33a73"/>
        <path id="Path_1598" data-name="Path 1598" d="M65.706,17.578a67.8,67.8,0,0,1-3.049,8.891,68.034,68.034,0,0,1-6.27,11.551,68.473,68.473,0,0,1-8.3,10.064,68.473,68.473,0,0,1-10.064,8.3,68.035,68.035,0,0,1-11.551,6.27A67.64,67.64,0,0,1,13.7,66.618,68.474,68.474,0,0,1,0,68V48.128A47.8,47.8,0,0,0,34.016,34.016,47.8,47.8,0,0,0,48.128,0Z" transform="translate(198 608) rotate(90)" fill="#e6cd01"/>
        <path id="Path_1599" data-name="Path 1599" d="M73.095,17.578a67.8,67.8,0,0,1-3.049,8.891,68.033,68.033,0,0,1-6.27,11.551,68.474,68.474,0,0,1-8.3,10.064,68.473,68.473,0,0,1-10.064,8.3,68.033,68.033,0,0,1-11.551,6.27,67.64,67.64,0,0,1-12.764,3.962A68.474,68.474,0,0,1,7.389,68V48.128A47.8,47.8,0,0,0,41.4,34.015,47.8,47.8,0,0,0,55.517,0Z" transform="translate(190.611 608)" fill="#1cd5c3"/>
        <path id="Path_1600" data-name="Path 1600" d="M65.706,17.578a67.8,67.8,0,0,1-3.049,8.891,68.034,68.034,0,0,1-6.27,11.551,68.473,68.473,0,0,1-8.3,10.064,68.473,68.473,0,0,1-10.064,8.3,68.035,68.035,0,0,1-11.551,6.27A67.64,67.64,0,0,1,13.7,66.618,68.474,68.474,0,0,1,0,68V48.128A47.8,47.8,0,0,0,34.016,34.016,47.8,47.8,0,0,0,48.128,0Z" transform="translate(198 608) rotate(-90)" fill="#1e8ff9"/>
        <path id="Path_1597" data-name="Path 1597" d="M35.649,73.279a1.981,1.981,0,0,1-1.98-1.98,4.849,4.849,0,0,0-3.811-4.715q-1.17-.265-2.316-.622a4.847,4.847,0,0,0-5.658,2.178,1.981,1.981,0,0,1-2.706.725l-1.714-.99a1.98,1.98,0,0,1-.725-2.705,4.872,4.872,0,0,0-.945-6.014q-.867-.8-1.671-1.67a4.872,4.872,0,0,0-6.015-.942A1.98,1.98,0,0,1,5.4,55.818L4.413,54.1A1.982,1.982,0,0,1,5.138,51.4a4.854,4.854,0,0,0,2.179-5.664q-.356-1.144-.62-2.313A4.849,4.849,0,0,0,1.98,39.61,1.981,1.981,0,0,1,0,37.629v-1.98a1.981,1.981,0,0,1,1.98-1.98A4.849,4.849,0,0,0,6.7,29.858q.265-1.17.621-2.315a4.845,4.845,0,0,0-2.178-5.658,1.981,1.981,0,0,1-.725-2.706l.99-1.715a1.981,1.981,0,0,1,2.705-.725,4.871,4.871,0,0,0,6.014-.945q.8-.866,1.67-1.669a4.873,4.873,0,0,0,.943-6.016A1.98,1.98,0,0,1,17.46,5.4l1.715-.99a1.981,1.981,0,0,1,2.705.725,4.85,4.85,0,0,0,5.662,2.179q1.145-.356,2.317-.621a4.849,4.849,0,0,0,3.81-4.716A1.981,1.981,0,0,1,35.649,0h1.98A1.981,1.981,0,0,1,39.61,1.98,4.849,4.849,0,0,0,43.421,6.7q1.17.264,2.316.621a4.845,4.845,0,0,0,5.658-2.178A1.981,1.981,0,0,1,54.1,4.414l1.715.99a1.98,1.98,0,0,1,.725,2.7,4.873,4.873,0,0,0,.945,6.015q.866.8,1.669,1.668a4.872,4.872,0,0,0,6.015.943,1.981,1.981,0,0,1,2.706.725l.99,1.715a1.98,1.98,0,0,1-.725,2.705,4.851,4.851,0,0,0-2.179,5.661q.357,1.146.622,2.316A4.848,4.848,0,0,0,71.3,33.669a1.981,1.981,0,0,1,1.98,1.98v1.98A1.981,1.981,0,0,1,71.3,39.61a4.848,4.848,0,0,0-4.715,3.81q-.265,1.169-.621,2.315A4.851,4.851,0,0,0,68.14,51.4a1.98,1.98,0,0,1,.725,2.705l-.99,1.715a1.98,1.98,0,0,1-2.705.725,4.872,4.872,0,0,0-6.014.944q-.91.983-1.9,1.884a4.454,4.454,0,0,0-.869,5.527l.159.274a1.981,1.981,0,0,1-.725,2.705l-1.715.99A1.98,1.98,0,0,1,51.4,68.14a4.849,4.849,0,0,0-5.66-2.179q-1.146.357-2.317.622A4.847,4.847,0,0,0,39.61,71.3a1.981,1.981,0,0,1-1.981,1.98ZM33.669,12.06A24.607,24.607,0,0,0,26.8,13.917l-.259.115-.021.009-.049.022-.03.014-.041.019-.045.021-.03.014-.078.036-.079.037-.014.007-.071.033-.008,0a24.85,24.85,0,0,0-11.979,12.16l0,.007-.031.069-.009.02-.026.059-.011.023-.024.055-.032.073-.008.016-.026.059-.005.012-.049.12a24.606,24.606,0,0,0-1.807,6.75,25.085,25.085,0,0,0-.176,2.687v.569a25.036,25.036,0,0,0,.176,2.685A24.626,24.626,0,0,0,16.838,51.5,24.826,24.826,0,0,0,26.92,59.415a24.581,24.581,0,0,0,6.748,1.8,25.068,25.068,0,0,0,2.687.175h.283v0h.372c.807-.012,1.617-.063,2.415-.152l.09-.011h0l.09-.01A24.678,24.678,0,0,0,51.5,56.441a24.844,24.844,0,0,0,7.688-9.568l0-.008.035-.076,0-.007q.094-.21.185-.423a24.585,24.585,0,0,0,1.8-6.748,25.211,25.211,0,0,0,.176-2.687v-.656a24.954,24.954,0,0,0-.176-2.6,24.581,24.581,0,0,0-1.8-6.748q-.322-.754-.693-1.479l0-.008-.028-.055-.012-.023-.025-.049-.019-.038-.018-.034-.039-.074-.008-.016-.035-.066q-.467-.9-1.019-1.744l-.33-.508-.029-.044-.022-.033-.022-.032A24.906,24.906,0,0,0,51.5,16.84l-.01-.006-.059-.044-.024-.018-.043-.032-.028-.021-.04-.029-.053-.038-.038-.028-.04-.029-.027-.019-.041-.03-.024-.017-.044-.032-.018-.012-.153-.109-.021-.015L50.8,16.33l-.024-.017-.043-.03-.025-.017-.074-.049-.03-.02-.037-.025-.034-.023-.035-.024-.037-.025-.032-.022-.049-.033-.02-.013-.07-.046-.021-.013-.053-.034-.022-.015-.056-.037-.016-.01-.227-.149-1-.6a15.3,15.3,0,0,0-1.353-.722l-.076-.037-.006,0-.163-.079-.009,0-.07-.033L47.2,14.24l-.064-.03-.016-.008-.162-.075h0l-.075-.034-.013-.006-.07-.032-.011,0c-.14-.063-.28-.125-.422-.184a24.624,24.624,0,0,0-7.651-1.9H38.7l-.039,0-.06,0h-.015c-.552-.043-1.107-.068-1.661-.074h-.571A25.146,25.146,0,0,0,33.669,12.06ZM40.6,39.61V33.669a2.971,2.971,0,1,1,5.941,0V39.61a2.971,2.971,0,1,1-5.941,0Zm-13.863,0V33.669a2.971,2.971,0,1,1,5.941,0V39.61a2.971,2.971,0,1,1-5.941,0Z" transform="translate(161.361 571.361)" fill="#0c3944"/>
        <path id="Path_1601" data-name="Path 1601" d="M3.969-11.358A3,3,0,0,1,2.761-11.6a3.157,3.157,0,0,1-.986-.668,3.157,3.157,0,0,1-.668-.986,3,3,0,0,1-.243-1.208,3.018,3.018,0,0,1,.243-1.2,3.135,3.135,0,0,1,.668-.992,3.157,3.157,0,0,1,.986-.668,3,3,0,0,1,1.208-.243,3.018,3.018,0,0,1,1.2.243,3.135,3.135,0,0,1,.992.668,3.135,3.135,0,0,1,.668.992,3.018,3.018,0,0,1,.243,1.2,3,3,0,0,1-.243,1.208,3.157,3.157,0,0,1-.668.986,3.135,3.135,0,0,1-.992.668A3.018,3.018,0,0,1,3.969-11.358Zm0-.648a2.356,2.356,0,0,0,.959-.2,2.544,2.544,0,0,0,.783-.533,2.449,2.449,0,0,0,.527-.783,2.4,2.4,0,0,0,.189-.945,2.429,2.429,0,0,0-.189-.959,2.449,2.449,0,0,0-.527-.783,2.449,2.449,0,0,0-.783-.527,2.429,2.429,0,0,0-.959-.189,2.4,2.4,0,0,0-.945.189,2.449,2.449,0,0,0-.783.527,2.544,2.544,0,0,0-.533.783,2.356,2.356,0,0,0-.2.959,2.323,2.323,0,0,0,.2.945,2.544,2.544,0,0,0,.533.783,2.544,2.544,0,0,0,.783.533A2.323,2.323,0,0,0,3.969-12.006Zm.054-.851a1.569,1.569,0,0,1-.641-.128,1.653,1.653,0,0,1-.506-.344,1.542,1.542,0,0,1-.338-.513,1.625,1.625,0,0,1-.122-.621,1.609,1.609,0,0,1,.122-.628,1.56,1.56,0,0,1,.338-.506,1.653,1.653,0,0,1,.506-.344,1.569,1.569,0,0,1,.641-.128,1.379,1.379,0,0,1,.682.149,2.284,2.284,0,0,1,.493.378l-.432.392a1.517,1.517,0,0,0-.3-.236.9.9,0,0,0-.446-.088.955.955,0,0,0-.689.29.969.969,0,0,0-.3.722.969.969,0,0,0,.3.722.955.955,0,0,0,.689.29.9.9,0,0,0,.473-.115,1.263,1.263,0,0,0,.338-.3l.459.365a1.8,1.8,0,0,1-.527.466A1.442,1.442,0,0,1,4.023-12.856Z" transform="translate(252.716 563.778)" fill="#0b4351"/>
      </g>
      <path id="Path_1602" data-name="Path 1602" d="M50.877-.632H11.088V-88.246h35.7q13.536,0,20.587,6.383a20.977,20.977,0,0,1,7.051,16.271,20.547,20.547,0,0,1-3.368,11.64,20.363,20.363,0,0,1-10.168,7.635q8.877,2.19,13.788,8.042a21.408,21.408,0,0,1,4.911,14.237A21.514,21.514,0,0,1,72.156-7.266Q64.727-.632,50.877-.632ZM44.833-78.108H23.176v28.287H44.833q8.688,0,13.032-3.692t4.344-10.451q0-6.759-4.344-10.451T44.833-78.108Zm3.966,38.3H23.176V-11.02H48.8q9.255,0,13.85-3.817t4.6-10.576q0-6.759-4.6-10.576T48.8-39.808ZM123.151.87A34.5,34.5,0,0,1,105.9-3.323,29.907,29.907,0,0,1,94.317-14.9a34.117,34.117,0,0,1-4.155-17.022,34.117,34.117,0,0,1,4.155-17.022A29.907,29.907,0,0,1,105.9-60.522a34.5,34.5,0,0,1,17.25-4.193,34.5,34.5,0,0,1,17.25,4.193,29.907,29.907,0,0,1,11.584,11.578,34.117,34.117,0,0,1,4.155,17.022A34.117,34.117,0,0,1,151.985-14.9,29.907,29.907,0,0,1,140.4-3.323,34.5,34.5,0,0,1,123.151.87Zm0-10.389A20.383,20.383,0,0,0,133.98-12.4a20.139,20.139,0,0,0,7.4-7.917,24.378,24.378,0,0,0,2.676-11.609,24.378,24.378,0,0,0-2.676-11.609,20.139,20.139,0,0,0-7.4-7.917,20.383,20.383,0,0,0-10.829-2.879,20.383,20.383,0,0,0-10.829,2.879,20.139,20.139,0,0,0-7.4,7.917,24.378,24.378,0,0,0-2.676,11.609,24.378,24.378,0,0,0,2.676,11.609,20.139,20.139,0,0,0,7.4,7.917A20.383,20.383,0,0,0,123.151-9.519Zm83.481-1.627V-1.133q-2.392.375-4.974.626t-5.1.25q-11.584,0-16.809-5.82T174.524-23.85V-53.075h-11.71V-63.213h11.71v-18.9h11.836v18.9h20.524l-1.511,10.138H186.359v28.537q0,7.885,3.242,10.889t10.23,3A44.136,44.136,0,0,0,206.632-11.146ZM246.8.87a34.5,34.5,0,0,1-17.25-4.193A29.907,29.907,0,0,1,217.964-14.9a34.117,34.117,0,0,1-4.155-17.022,34.118,34.118,0,0,1,4.155-17.022,29.907,29.907,0,0,1,11.584-11.578,34.5,34.5,0,0,1,17.25-4.193,34.5,34.5,0,0,1,17.25,4.193,29.907,29.907,0,0,1,11.584,11.578,34.117,34.117,0,0,1,4.155,17.022A34.117,34.117,0,0,1,275.632-14.9,29.907,29.907,0,0,1,264.048-3.323,34.5,34.5,0,0,1,246.8.87Zm0-10.389A20.383,20.383,0,0,0,257.627-12.4a20.139,20.139,0,0,0,7.4-7.917A24.378,24.378,0,0,0,267.7-31.923a24.378,24.378,0,0,0-2.676-11.609,20.139,20.139,0,0,0-7.4-7.917A20.383,20.383,0,0,0,246.8-54.327a20.383,20.383,0,0,0-10.829,2.879,20.139,20.139,0,0,0-7.4,7.917A24.378,24.378,0,0,0,225.9-31.923a24.378,24.378,0,0,0,2.676,11.609,20.139,20.139,0,0,0,7.4,7.917A20.383,20.383,0,0,0,246.8-9.519ZM305.725-.632H293.89V-93.878l11.836-1.252ZM352.817.87a34.5,34.5,0,0,1-17.25-4.193A29.907,29.907,0,0,1,323.983-14.9a34.118,34.118,0,0,1-4.155-17.022,34.118,34.118,0,0,1,4.155-17.022,29.907,29.907,0,0,1,11.584-11.578,34.5,34.5,0,0,1,17.25-4.193,34.5,34.5,0,0,1,17.25,4.193,29.907,29.907,0,0,1,11.584,11.578,34.118,34.118,0,0,1,4.155,17.022A34.117,34.117,0,0,1,381.651-14.9,29.907,29.907,0,0,1,370.067-3.323,34.5,34.5,0,0,1,352.817.87Zm0-10.389A20.383,20.383,0,0,0,363.646-12.4a20.139,20.139,0,0,0,7.4-7.917,24.378,24.378,0,0,0,2.676-11.609,24.378,24.378,0,0,0-2.676-11.609,20.139,20.139,0,0,0-7.4-7.917,20.383,20.383,0,0,0-10.829-2.879,20.383,20.383,0,0,0-10.829,2.879,20.139,20.139,0,0,0-7.4,7.917,24.378,24.378,0,0,0-2.676,11.609,24.378,24.378,0,0,0,2.676,11.609,20.139,20.139,0,0,0,7.4,7.917A20.383,20.383,0,0,0,352.817-9.519ZM459.088-.632H447.252V-37.054q0-8.073-4.155-12.673t-11.458-4.6q-9.066,0-14.48,5.757t-5.414,14.894V-.632H399.909V-63.213h11.458l.252,9.45a26.409,26.409,0,0,1,9.7-7.948,29.289,29.289,0,0,1,13.221-3q11.458,0,18.006,6.978t6.547,19.181Z" transform="translate(835.912 525.13)" fill="#0c3944"/>
    </g>
  </g>
</svg>
